<?xml version="1.0" encoding="UTF-8"?>
<svg version="1.1" xmlns="http://www.w3.org/2000/svg" width="1024" height="1024">
<path d="M0 0 C1.10935286 -0.00297112 2.21870571 -0.00594224 3.36167532 -0.0090034 C7.08076991 -0.01767822 10.79983226 -0.01919764 14.51893616 -0.02069092 C17.18510591 -0.02532005 19.85127275 -0.03032449 22.5174408 -0.03573608 C29.76372766 -0.04929934 37.01000897 -0.05534145 44.25630641 -0.05974674 C48.78625464 -0.06251347 53.31620074 -0.06675169 57.84614754 -0.07125092 C70.40250356 -0.08344268 82.95885788 -0.09374106 95.51521969 -0.09712601 C96.3183934 -0.09734557 97.12156712 -0.09756514 97.94907943 -0.09779136 C99.15663989 -0.09811878 99.15663989 -0.09811878 100.38859552 -0.09845281 C102.01977027 -0.09889626 103.65094501 -0.09934283 105.28211975 -0.09979248 C106.09122992 -0.10001391 106.90034009 -0.10023534 107.73396874 -0.10046348 C120.82789546 -0.10440672 133.92176636 -0.12184668 147.01567154 -0.145152 C160.47777386 -0.16891797 173.93984825 -0.1813303 187.40197188 -0.18249393 C194.95275479 -0.18340793 202.50346504 -0.1890903 210.05422783 -0.20731354 C216.48757375 -0.22278574 222.92082456 -0.22779345 229.35418557 -0.21957543 C232.63102348 -0.21569345 235.90763212 -0.21814049 239.18445396 -0.23063278 C252.13034816 -0.27706958 264.45950597 -0.2947866 277.01527405 3.14044189 C277.89228438 3.37189281 278.76929472 3.60334373 279.67288113 3.84180832 C302.10601755 9.9821774 321.52544565 22.95042856 338.01527405 39.14044189 C338.98593811 40.09177002 338.98593811 40.09177002 339.97621155 41.06231689 C362.57698407 64.86231408 373.71285684 97.2641691 374.629776 129.62091064 C374.6673039 130.77930954 374.70483179 131.93770844 374.74349689 133.13121033 C375.14358512 146.5699546 375.17941207 160.00928981 375.1832428 173.45294189 C375.18467368 174.79697691 375.18627123 176.14101176 375.18802834 177.48504639 C375.19717602 184.50315775 375.20137537 191.52125054 375.20057678 198.53936768 C375.19997371 205.00555539 375.21059796 211.47166034 375.22632045 217.93782711 C375.23950115 223.56580197 375.24475655 229.19375002 375.24412137 234.82174015 C375.24387015 238.15032054 375.24747862 241.47876778 375.25729942 244.80734253 C375.35528845 281.39176619 375.35528845 281.39176619 370.76527405 298.39044189 C370.54838928 299.21705322 370.33150452 300.04366455 370.10804749 300.89532471 C360.62241732 335.80190401 336.9039063 365.7385417 305.59339905 383.71856689 C288.38668231 393.29075181 270.20815245 399.49439247 250.44496155 400.44512939 C235.94185856 401.13343869 235.94185856 401.13343869 224.50160217 409.57110596 C222.0261141 412.18484402 219.35519522 414.58871234 216.71644592 417.03570557 C214.47292535 419.12170545 212.24968324 421.22739597 210.03089905 423.33966064 C206.21475074 426.96358421 202.33054499 430.5020425 198.4019928 434.00372314 C195.58475758 436.52586335 192.79878873 439.0812558 190.01527405 441.64044189 C186.45339654 444.91489919 182.87481069 448.1685065 179.26527405 451.39044189 C174.83017506 455.36919629 170.4816859 459.43521737 166.14027405 463.51544189 C164.08692618 465.44273883 162.03336267 467.36980552 159.97962952 469.29669189 C158.709711 470.48864127 157.44045882 471.68130115 156.17201233 472.87481689 C154.52005879 474.42655407 152.86238094 475.97189867 151.20277405 477.51544189 C150.26820374 478.38942627 149.33363342 479.26341064 148.3707428 480.16387939 C146.01527405 482.14044189 146.01527405 482.14044189 143.01527405 483.14044189 C143.01527405 483.80044189 143.01527405 484.46044189 143.01527405 485.14044189 C140.55012812 487.68821841 137.74041198 489.87681926 135.01527405 492.14044189 C134.1748053 492.85587158 133.33433655 493.57130127 132.46839905 494.30841064 C131.6176178 495.01610596 130.76683655 495.72380127 129.89027405 496.45294189 C129.10394592 497.10907471 128.3176178 497.76520752 127.50746155 498.44122314 C122.06220377 502.1538989 116.42845302 502.95367005 110.01527405 502.14044189 C102.86141337 500.33848905 97.90048927 497.45750875 94.01527405 491.14044189 C89.83683056 482.20558895 90.63286115 472.27833322 90.7223053 462.66387939 C90.72790996 460.88455566 90.73217594 459.10522726 90.73516846 457.32589722 C90.74654877 452.67341018 90.77595622 448.02121015 90.8092804 443.36883545 C90.84012927 438.60914999 90.85370527 433.84941755 90.86878967 429.08966064 C90.90083333 419.77312923 90.95194592 410.45680956 91.01527405 401.14044189 C89.53547058 401.15043465 89.53547058 401.15043465 88.02577209 401.16062927 C78.61495229 401.2221043 69.20417449 401.26672717 59.79319763 401.29587841 C54.9577939 401.31137031 50.12255539 401.332297 45.2872467 401.36676025 C3.56475077 401.65614303 3.56475077 401.65614303 -15.98472595 398.14044189 C-17.49872986 397.86966324 -17.49872986 397.86966324 -19.0433197 397.59341431 C-21.69161327 397.11512427 -24.33864884 396.63082371 -26.98472595 396.14044189 C-26.98472595 395.48044189 -26.98472595 394.82044189 -26.98472595 394.14044189 C-27.53797546 394.03812256 -28.09122498 393.93580322 -28.66123962 393.8303833 C-34.26631863 392.70307166 -39.16134688 391.00583831 -44.29722595 388.51544189 C-45.03070251 388.16425293 -45.76417908 387.81306396 -46.5198822 387.45123291 C-55.77289662 382.91268595 -63.99674608 377.10244857 -72.04722595 370.68341064 C-73.40843414 369.59938396 -74.80893534 368.56378151 -76.23472595 367.56622314 C-76.81222595 367.09571533 -77.38972595 366.62520752 -77.98472595 366.14044189 C-77.98472595 365.48044189 -77.98472595 364.82044189 -77.98472595 364.14044189 C-78.53902283 363.91743408 -79.0933197 363.69442627 -79.66441345 363.46466064 C-98.34051544 352.80607719 -111.25272893 322.87048767 -116.98472595 303.14044189 C-120.63900941 288.50333932 -122.1349165 274.26269516 -122.14585876 259.19171143 C-122.15049581 257.69413636 -122.15552164 256.19656245 -122.16090393 254.69898987 C-122.17394949 250.65085593 -122.18045812 246.60273853 -122.18491459 242.55458689 C-122.18785962 240.01577825 -122.19196715 237.47697398 -122.19641876 234.93816757 C-122.21007653 226.96702921 -122.21975012 218.99590102 -122.22362065 211.02475178 C-122.22808945 201.87580488 -122.24558965 192.72700826 -122.27462125 183.578107 C-122.29637163 176.47280112 -122.30633209 169.36753709 -122.30766177 162.26219833 C-122.30870082 158.0346044 -122.31441285 153.80715203 -122.33248138 149.57959366 C-122.50991697 105.51856484 -114.40103663 67.93960114 -82.51060486 35.64776611 C-60.45465068 14.00350275 -31.12656357 -0.02607066 0 0 Z M-30.98472595 49.95294189 C-31.8993158 50.46896973 -31.8993158 50.46896973 -32.8323822 50.99542236 C-37.92790635 53.93941283 -42.52951365 57.31272428 -46.98472595 61.14044189 C-47.67695251 61.70118408 -48.36917908 62.26192627 -49.0823822 62.83966064 C-50.76244749 64.21911783 -52.38086502 65.67307976 -53.98472595 67.14044189 C-53.98472595 67.80044189 -53.98472595 68.46044189 -53.98472595 69.14044189 C-54.97472595 69.47044189 -55.96472595 69.80044189 -56.98472595 70.14044189 C-58.66713514 72.12765701 -60.17888357 74.08026645 -61.67222595 76.20294189 C-62.11066833 76.82563965 -62.54911072 77.4483374 -63.00083923 78.08990479 C-88.14420226 114.75692948 -81.1738359 162.74292018 -80.86773121 205.028198 C-80.81700018 212.05272007 -80.7826865 219.07706163 -80.76262933 226.10173738 C-80.7458269 231.6203585 -80.7138297 237.13876809 -80.67078322 242.65724623 C-80.64567619 245.91699569 -80.62838 249.17643973 -80.62340736 252.43629074 C-80.56109502 283.95177637 -74.29410567 310.22076362 -51.6448822 333.55059814 C-30.32518245 353.69546842 -5.7324876 358.81929233 22.4254303 358.49591064 C24.64966054 358.48587606 26.87390038 358.47780229 29.09814453 358.47157288 C34.91005997 358.45081404 40.72155143 358.40687889 46.53327942 358.35681152 C55.8342453 358.28105589 65.13546062 358.24308805 74.43662834 358.20131874 C77.65352409 358.18386851 80.87024704 358.15769375 84.08706665 358.12974548 C119.24046665 357.86936766 119.24046665 357.86936766 128.89027405 363.95294189 C135.87917886 371.14740273 135.18730677 380.51318315 135.3316803 389.88262939 C135.3524614 391.006138 135.37324249 392.12964661 135.39465332 393.28720093 C135.45984629 396.86322121 135.51889289 400.43931266 135.57777405 404.01544189 C135.62098804 406.44513665 135.66460325 408.8748243 135.70863342 411.30450439 C135.81549659 417.24974246 135.91731832 423.19505075 136.01527405 429.14044189 C137.00527405 428.81044189 137.99527405 428.48044189 139.01527405 428.14044189 C139.01527405 427.48044189 139.01527405 426.82044189 139.01527405 426.14044189 C139.5979303 425.87231689 140.18058655 425.60419189 140.78089905 425.32794189 C143.04314005 424.12563199 144.82103723 422.80218277 146.76527405 421.14044189 C147.68566467 420.36700439 147.68566467 420.36700439 148.62464905 419.57794189 C150.24703781 418.23420938 150.24703781 418.23420938 150.01527405 416.14044189 C150.60534241 415.87255859 151.19541077 415.60467529 151.80335999 415.32867432 C154.03711863 414.12870706 155.5780083 412.87432177 157.40589905 411.12872314 C158.34018738 410.24470825 158.34018738 410.24470825 159.29335022 409.34283447 C159.94408508 408.71916992 160.59481995 408.09550537 161.26527405 407.45294189 C162.61989739 406.1707981 163.97535648 404.88953669 165.3316803 403.60919189 C165.97508362 403.00075439 166.61848694 402.39231689 167.28138733 401.76544189 C169.7969782 399.40782814 172.39162324 397.15148174 175.0035553 394.90216064 C177.67154094 392.5657305 180.28041959 390.16627939 182.89027405 387.76544189 C187.42611267 383.59332283 191.9800357 379.44373157 196.57777405 375.33966064 C198.26212182 373.81996866 199.92778342 372.27940028 201.57777405 370.72247314 C210.12388407 362.73655021 217.10746506 359.07394701 228.9410553 358.96466064 C230.3012631 358.94484751 231.66145229 358.92372199 233.0216217 358.90142822 C233.72571167 358.89027985 234.42980164 358.87913147 235.15522766 358.86764526 C247.18951347 358.64771823 258.59368847 358.3377737 270.01527405 354.14044189 C271.20250061 353.71762939 272.38972717 353.29481689 273.6129303 352.85919189 C282.33531741 349.44236996 289.58413155 344.76235163 297.01527405 339.14044189 C298.43646545 338.07696533 298.43646545 338.07696533 299.8863678 336.99200439 C300.58890686 336.38098877 301.29144592 335.76997314 302.01527405 335.14044189 C302.01527405 334.48044189 302.01527405 333.82044189 302.01527405 333.14044189 C302.57601624 332.92130127 303.13675842 332.70216064 303.7144928 332.47637939 C317.05700175 324.72911613 324.8325471 305.25217962 329.01527405 291.14044189 C332.87074794 274.93366056 332.44551542 258.37977237 332.38531899 241.83207035 C332.37382571 237.92206454 332.37812533 234.01206869 332.38006592 230.10205078 C332.38094292 223.54628156 332.36999057 216.99061693 332.35145569 210.43487549 C332.33026181 202.89631249 332.32678936 195.35790197 332.33301765 187.8193152 C332.33874462 180.50812189 332.33302888 173.19698129 332.3218441 165.88579559 C332.31724562 162.80007688 332.31630328 159.71439091 332.31842995 156.62866974 C332.32033683 152.98734755 332.3120283 149.34617692 332.29636955 145.7048893 C332.29022119 143.76015297 332.29359561 141.8153935 332.29743958 139.87065125 C332.12337186 110.47646549 322.62862298 84.47472783 301.58802795 63.60430908 C293.24991907 55.8434738 283.57066695 50.31082652 273.01527405 46.14044189 C272.09270719 45.77310188 271.17014032 45.40576187 270.21961689 45.02729034 C258.18255674 40.95096626 245.9337305 41.5784727 233.36952209 41.62286377 C230.78423164 41.61743635 228.19894428 41.61031022 225.61366272 41.60162354 C219.34796605 41.58393094 213.08246214 41.58763715 206.81675824 41.5992741 C201.71806145 41.60834733 196.61941828 41.60951571 191.52071571 41.60517883 C190.79205013 41.6045659 190.06338455 41.60395297 189.3126382 41.60332146 C187.83183209 41.60204241 186.351026 41.60074556 184.87021992 41.5994311 C171.01633686 41.58805179 157.16256003 41.60109598 143.3086944 41.62263256 C131.45538192 41.64048983 119.60222626 41.63740564 107.74891663 41.61895752 C93.94562718 41.59748421 80.14243071 41.58916203 66.33912688 41.60140657 C64.86317783 41.6026806 63.38722876 41.60393809 61.91127968 41.60517883 C61.18531239 41.60579594 60.4593451 41.60641304 59.71137881 41.60704884 C54.62812656 41.61048328 49.54493391 41.60471462 44.4616909 41.59526062 C37.60047818 41.5827791 30.73956394 41.59184165 23.87837982 41.61483765 C21.37153675 41.62009211 18.86466862 41.6186675 16.35783577 41.60978699 C0.01337296 41.55725946 -16.37892711 41.65265575 -30.98472595 49.95294189 Z " fill="#5B4CFE" transform="translate(385.98472595214844,282.85955810546875)"/>
<path d="M0 0 C2.86698194 1.53167528 5.57007669 3.17137843 8.27734375 4.97265625 C19.59409526 12.45654013 32.51305588 17.02854423 46.203125 14.45703125 C56.66646565 12.07780429 65.12183645 7.67891153 74.1730957 2.08544922 C80.34168863 -1.71639539 85.12305006 -2.92664021 92.3125 -2 C98.52714093 0.36092833 101.61688228 4.06964101 104.3125 10 C105.91666831 14.89221514 104.96542444 19.21521871 103.3125 24 C94.77811991 38.74120198 73.00735274 48.08050044 57.56640625 52.2734375 C43.3342366 55.45132892 30.30137883 54.19131633 16.3125 51 C14.31501395 50.65191872 12.31569372 50.31356984 10.3125 50 C10.3125 49.34 10.3125 48.68 10.3125 48 C9.549375 47.79375 8.78625 47.5875 8 47.375 C-3.84728589 42.95736797 -17.81247425 34.96426039 -24.6875 24 C-26.85072155 18.82707889 -27.18256253 14.35821682 -25.6875 9 C-20.45808212 -1.07147147 -10.21258744 -4.95659781 0 0 Z " fill="#5C4CFE" transform="translate(472.6875,515)"/>
<path d="M0 0 C6.87603581 4.52812115 11.27220324 10.59411826 14.25 18.1875 C17.34753291 33.93329231 15.92107691 47.2603979 7.1875 60.8125 C1.20892114 66.79107886 -4.77773599 69.11351944 -13.125 69.375 C-20.84571272 69.28844492 -26.16131762 67.26288003 -32.03125 62.2734375 C-40.75665386 53.28922928 -42.29422801 41.25484877 -42.14453125 29.23828125 C-41.72727827 19.88955908 -38.77003775 10.95079707 -32.14453125 4.07421875 C-22.50967171 -3.67597765 -11.28603947 -4.98850021 0 0 Z " fill="#5C4DFE" transform="translate(418,421)"/>
<path d="M0 0 C5.04086119 4.22006307 8.11335109 8.17850797 10.5 14.30078125 C10.5 15.29078125 10.5 16.28078125 10.5 17.30078125 C11.16 17.63078125 11.82 17.96078125 12.5 18.30078125 C13.5026932 47.19377136 13.5026932 47.19377136 4.07421875 58.6171875 C-0.6092141 63.62602015 -4.98247387 66.96202733 -11.98828125 67.63671875 C-21.11953377 67.72998997 -27.06115389 67.01702451 -34.1875 61.05078125 C-43.23406733 50.29270118 -45.57767046 39.25542561 -44.70703125 25.38427734 C-43.78284857 16.08359933 -40.35525545 7.74016015 -33.5 1.30078125 C-23.36004452 -5.93459007 -10.62030771 -7.2184904 0 0 Z " fill="#5C4CFE" transform="translate(634.5,422.69921875)"/>
<path d="M0 0 C2.30118275 3.45177413 3.10993611 6.78038012 4.0625 10.75 C4.23587891 11.4409375 4.40925781 12.131875 4.58789062 12.84375 C6.78877475 21.81593662 7.14856188 30.25475194 7.14526367 39.48413086 C7.14825968 40.84834891 7.15166322 42.21256612 7.15544128 43.57678223 C7.16424569 47.26947757 7.16661804 50.96214971 7.16725707 54.65485454 C7.16797018 56.96950121 7.17010956 59.28414208 7.17275429 61.59878731 C7.18199959 69.69615169 7.18609065 77.79349966 7.18530273 85.89086914 C7.18470383 93.40074725 7.19522085 100.9105531 7.2110464 108.42041296 C7.22419769 114.89548861 7.22948339 121.37054088 7.22884732 127.84562975 C7.22859433 131.7003293 7.23133345 135.55496473 7.24202538 139.4096508 C7.32171564 170.18902375 7.32171564 170.18902375 5 183 C4.67 183 4.34 183 4 183 C4.00184359 182.21499839 4.00368717 181.42999678 4.00558662 180.62120724 C4.04987891 161.46371859 4.08291144 142.30624025 4.10362434 123.1487112 C4.11390882 113.88403413 4.12791467 104.61939137 4.15087891 95.35473633 C4.17089982 87.27363579 4.18373696 79.19256012 4.18817699 71.11143547 C4.19076972 66.83803193 4.19680387 62.5646995 4.21146011 58.29131889 C4.225182 54.25713282 4.22919361 50.22304616 4.22621536 46.18883896 C4.22675907 44.71964411 4.23064858 43.25044542 4.23841095 41.78127098 C4.29486911 30.52975251 3.74692931 19.31109895 0.875 8.375 C0.10214166 5.39397496 -0.19079506 3.052721 0 0 Z " fill="#4132F6" transform="translate(713,384)"/>
<path d="M0 0 C16.17401246 2.45419202 32.73576472 17.94056899 44 29 C44.64710938 29.63421875 45.29421875 30.2684375 45.9609375 30.921875 C59.19956403 44.86295926 75.51986005 68.8765042 76.07836914 88.79492188 C76.05250732 89.52259766 76.02664551 90.25027344 76 91 C74.3023738 88.45356071 73.51014804 86.83247373 72.625 84 C65.93139256 63.33293744 56.6889879 45.2761198 41 30 C41 29.34 41 28.68 41 28 C40.41863281 27.7421875 39.83726562 27.484375 39.23828125 27.21875 C36.81240694 25.89785509 35.17538134 24.4133848 33.1875 22.5 C23.35542155 13.60430997 11.76414648 6.99118421 0 1 C0 0.67 0 0.34 0 0 Z " fill="#4639F1" transform="translate(680,293)"/>
<path d="M0 0 C0.99 0.33 1.98 0.66 3 1 C2.5138623 1.34828857 2.02772461 1.69657715 1.52685547 2.05541992 C-3.62196487 5.81973026 -8.27489553 9.90190449 -12.875 14.3125 C-14.28315383 15.64787431 -15.69200574 16.98251288 -17.1015625 18.31640625 C-17.77348633 18.95336426 -18.44541016 19.59032227 -19.13769531 20.24658203 C-22.23233296 23.16027993 -25.3990288 25.99071593 -28.5703125 28.8203125 C-31.44393135 31.39825352 -34.28463256 34.01055583 -37.125 36.625 C-40.36204847 39.6023135 -43.6113811 42.55953186 -46.9375 45.4375 C-50.48405098 48.51216062 -53.93134296 51.68635517 -57.375 54.875 C-58.20898315 55.64493286 -58.20898315 55.64493286 -59.05981445 56.43041992 C-61.70025135 58.86836815 -64.33407436 61.31252492 -66.953125 63.7734375 C-67.83484375 64.59070313 -68.7165625 65.40796875 -69.625 66.25 C-70.40101563 66.97703125 -71.17703125 67.7040625 -71.9765625 68.453125 C-74 70 -74 70 -77 70 C-77 69.34 -77 68.68 -77 68 C-76.01 68 -75.02 68 -74 68 C-74 67.34 -74 66.68 -74 66 C-73.34 66 -72.68 66 -72 66 C-72 65.34 -72 64.68 -72 64 C-70.35546875 62.30859375 -70.35546875 62.30859375 -68.1875 60.4375 C-67.12595703 59.50744141 -67.12595703 59.50744141 -66.04296875 58.55859375 C-64 57 -64 57 -61 56 C-61 55.34 -61 54.68 -61 54 C-59.63671875 52.625 -59.63671875 52.625 -57.6875 51 C-54.22982451 48.06250578 -50.84755259 45.06275384 -47.5 42 C-44.38092989 39.15475772 -41.25244609 36.3280042 -38.0625 33.5625 C-34.16597725 30.17595159 -30.36647172 26.68662005 -26.56713867 23.19213867 C-22.55613913 19.50429126 -18.51813769 15.84797457 -14.4609375 12.2109375 C-12.71087525 10.63865935 -10.96668778 9.05983142 -9.2265625 7.4765625 C-7.87691406 6.25066406 -7.87691406 6.25066406 -6.5 5 C-5.6853125 4.2575 -4.870625 3.515 -4.03125 2.75 C-2 1 -2 1 0 0 Z " fill="#4437F5" transform="translate(597,645)"/>
<path d="M0 0 C13.74761762 1.96394537 25.98910571 9.68754019 36 19 C36.86238281 19.7940625 37.72476563 20.588125 38.61328125 21.40625 C48.2058452 30.60579539 55.16854996 40.57365692 60 53 C60 53.66 60 54.32 60 55 C59.34 55 58.68 55 58 55 C57.50371094 53.94941406 57.00742187 52.89882813 56.49609375 51.81640625 C52.67578493 43.86493243 48.86721311 36.66042003 43 30 C42.35804688 29.20464844 41.71609375 28.40929687 41.0546875 27.58984375 C31.77405629 16.51130428 20.26420262 9.47554958 7 4 C5.56208536 3.37595454 4.12449491 2.75116043 2.6875 2.125 C1.800625 1.75375 0.91375 1.3825 0 1 C0 0.67 0 0.34 0 0 Z " fill="#4537F6" transform="translate(652,326)"/>
<path d="M0 0 C3.00911253 1.50455627 3.13811098 3.68809186 4.25 6.8125 C12.83449025 29.58869091 26.99712642 46.99856321 49 58 C49 58.66 49 59.32 49 60 C31.9762675 55.04718894 16.57672114 37.66507637 8.24633789 22.53515625 C0 7.05265261 0 7.05265261 0 0 Z " fill="#4336F5" transform="translate(308,573)"/>
<path d="M0 0 C-1.30116867 2.92137389 -2.60221194 4.72019936 -5 6.8125 C-17.71972428 19.21489228 -26.19882959 37.46108627 -32 54 C-33.70642188 49.89232577 -32.17341911 47.08325838 -30.5625 43.125 C-26.22572027 32.62509027 -11.90285523 0 0 0 Z " fill="#4337F2" transform="translate(304,320)"/>
<path d="M0 0 C1.62122772 0.03025772 1.62122772 0.03025772 3.27520752 0.06112671 C4.43574646 0.09332306 5.5962854 0.12551941 6.79199219 0.15869141 C7.98491882 0.18371735 9.17784546 0.20874329 10.40692139 0.23452759 C14.21785964 0.31671231 18.02827858 0.41330946 21.83886719 0.51025391 C24.42217929 0.56849491 27.00551272 0.62579815 29.58886719 0.68212891 C35.92248819 0.82228908 42.25574275 0.97428437 48.58886719 1.13525391 C48.58886719 1.46525391 48.58886719 1.79525391 48.58886719 2.13525391 C42.78378133 3.13494975 37.15578571 3.2808807 31.27246094 3.26806641 C29.81042992 3.2695015 29.81042992 3.2695015 28.31886292 3.27096558 C26.2673435 3.27164333 24.21582189 3.26981736 22.16430664 3.265625 C19.03299122 3.26026524 15.90181884 3.26558674 12.77050781 3.27197266 C10.77115854 3.27131192 8.77180935 3.27003084 6.77246094 3.26806641 C5.37537148 3.27110275 5.37537148 3.27110275 3.95005798 3.27420044 C-0.61826417 3.25779732 -4.91613935 3.07037598 -9.41113281 2.13525391 C-6.14113968 0.1841512 -3.78174122 -0.08835844 0 0 Z " fill="#3B2DF3" transform="translate(397.4111328125,680.86474609375)"/>
<path d="M0 0 C2.68060754 3.28616647 4.4239343 6.74397476 6.25 10.5625 C11.58283131 21.43327152 18.13736873 30.78235744 26 40 C25.67 40.66 25.34 41.32 25 42 C14.30336822 31.48824828 4.87437683 17.24610687 0 3 C0 2.01 0 1.02 0 0 Z " fill="#3E32F1" transform="translate(274,597)"/>
<path d="M0 0 C3.57560939 1.49452438 5.58897755 3.53272235 8.1875 6.375 C14.48950461 12.84656527 21.78906363 17.73011388 29.23730469 22.78857422 C31.20102186 24.13815381 33.11414038 25.54364244 35 27 C29.74085066 26.54892286 26.23168171 23.71526758 22.0625 20.75 C21.37220703 20.27175781 20.68191406 19.79351563 19.97070312 19.30078125 C15.80792918 16.38881236 11.7640274 13.41648809 8 10 C8 9.34 8 8.68 8 8 C7.4225 7.7525 6.845 7.505 6.25 7.25 C3.67060021 5.81700012 1.93878408 4.21575324 0 2 C0 1.34 0 0.68 0 0 Z " fill="#4336F4" transform="translate(300,639)"/>
<path d="M0 0 C1 3 1 3 0.36328125 4.8671875 C-3.69604874 12.62367678 -8.26068812 18.65276103 -16.828125 21.63671875 C-19.82043838 22.1372316 -22.71852044 22.0928148 -25.75 22.0625 C-26.92046875 22.05347656 -28.0909375 22.04445313 -29.296875 22.03515625 C-30.18890625 22.02355469 -31.0809375 22.01195312 -32 22 C-32.33 21.34 -32.66 20.68 -33 20 C-31.9378125 19.98582031 -30.875625 19.97164063 -29.78125 19.95703125 C-20.44510881 19.69873649 -14.23585785 19.05531103 -7.30078125 12.359375 C-3.78502123 8.57972016 -1.77301731 4.82654713 0 0 Z " fill="#4536F3" transform="translate(430,468)"/>
<path d="M0 0 C0.66 0 1.32 0 2 0 C2.26538574 0.60360352 2.53077148 1.20720703 2.80419922 1.82910156 C4.76845064 5.39507209 7.89857871 7.35605628 11.125 9.75 C11.82625 10.2749707 12.5275 10.79994141 13.25 11.34082031 C20.37799269 16.52510326 27.98972473 20.37833299 36 24 C34.4375 24.7109375 34.4375 24.7109375 32 25 C29.51839501 23.97991718 27.32669739 22.926273 25 21.625 C24.34080566 21.2635791 23.68161133 20.9021582 23.00244141 20.52978516 C14.45676448 15.72451539 5.60601664 10.20881009 0 2 C0 1.34 0 0.68 0 0 Z " fill="#4436F4" transform="translate(449,538)"/>
<path d="M0 0 C8.57606592 0.33806069 14.91412706 3.18634535 21.08203125 9.125 C24.59144721 13.12759254 26.80510853 16.97380235 27.25 22.3125 C27.1675 22.9725 27.085 23.6325 27 24.3125 C25.45757138 21.99885707 24.2968427 19.92645515 23.125 17.4375 C19.10670768 9.43024597 14.3660132 6.10117107 6 3.3125 C4.10787263 3.09070215 2.21115528 2.90635985 0.3125 2.75 C-0.68136719 2.66621094 -1.67523437 2.58242188 -2.69921875 2.49609375 C-3.83810547 2.40521484 -3.83810547 2.40521484 -5 2.3125 C-3 0.3125 -3 0.3125 0 0 Z " fill="#4538F2" transform="translate(618,417.6875)"/>
<path d="M0 0 C-1.39798828 0.78310547 -1.39798828 0.78310547 -2.82421875 1.58203125 C-11.04229592 6.29062085 -18.30755237 11.4275195 -25.390625 17.71484375 C-28 20 -28 20 -31 22 C-30.43493539 18.55575243 -29.45093852 17.15369799 -26.75390625 14.9765625 C-26.08584961 14.43273926 -25.41779297 13.88891602 -24.72949219 13.32861328 C-24.01438477 12.7664209 -23.29927734 12.20422852 -22.5625 11.625 C-21.83836914 11.04862793 -21.11423828 10.47225586 -20.36816406 9.87841797 C-5.32103072 -1.94145715 -5.32103072 -1.94145715 0 0 Z " fill="#4438F1" transform="translate(336,298)"/>
<path d="M0 0 C-2 2 -2 2 -5.25 3.6875 C-13.03390109 8.10538981 -16.18462631 14.76917221 -19 23 C-19.33 23 -19.66 23 -20 23 C-20 14.91783522 -16.21047053 9.96713812 -11 4 C-7.6415518 0.83590644 -4.70685905 -0.55374812 0 0 Z " fill="#4438F3" transform="translate(612,420)"/>
<path d="M0 0 C0.66 0.33 1.32 0.66 2 1 C-4.52258427 7.82057036 -10.74597207 14.24768089 -19 19 C-19.66 18.67 -20.32 18.34 -21 18 C-19.23361856 16.51551984 -17.46173862 15.03758035 -15.6875 13.5625 C-14.20830078 12.32693359 -14.20830078 12.32693359 -12.69921875 11.06640625 C-10 9 -10 9 -7 8 C-7 7.34 -7 6.68 -7 6 C-5.46875 4.4921875 -5.46875 4.4921875 -3.5 2.875 C-2.8503125 2.33617187 -2.200625 1.79734375 -1.53125 1.2421875 C-1.0259375 0.83226562 -0.520625 0.42234375 0 0 Z " fill="#4437F4" transform="translate(695,610)"/>
<path d="M0 0 C0.99 0.33 1.98 0.66 3 1 C1.8553125 1.5878125 1.8553125 1.5878125 0.6875 2.1875 C-2.42531567 4.2868408 -3.50545441 5.56254514 -5 9 C-5.38242901 11.27423206 -5.62166125 13.51663191 -5.7890625 15.81640625 C-5.99650612 17.96383187 -6.42561081 19.92372432 -7 22 C-9.33475436 17.60516826 -9.28515878 13.71533079 -8 9 C-5.922876 5.20387683 -3.84840048 2.11041317 0 0 Z " fill="#4A3CF4" transform="translate(455,515)"/>
<path d="M0 0 C-0.87011719 0.41958984 -0.87011719 0.41958984 -1.7578125 0.84765625 C-10.1520389 5.15558432 -14.75245519 10.15946136 -18 19 C-18.99651471 16.39465432 -19.10707503 15.28211942 -18.1015625 12.6328125 C-14.47585906 6.47487174 -8.25337123 -3.08100962 0 0 Z " fill="#4235F4" transform="translate(398,421)"/>
<path d="M0 0 C0.66 0.33 1.32 0.66 2 1 C1.34773438 1.51949219 0.69546875 2.03898437 0.0234375 2.57421875 C-9.33159096 9.89911472 -9.33159096 9.89911472 -18 18 C-18 15 -18 15 -16.6015625 13.203125 C-11.46795944 8.1303947 -6.03253349 3.95575967 0 0 Z " fill="#4233F6" transform="translate(347,336)"/>
<path d="M0 0 C0 2 0 2 -1.3984375 3.41015625 C-2.05070313 3.95542969 -2.70296875 4.50070312 -3.375 5.0625 C-6.79851325 7.97064567 -10.16616738 10.92660273 -13.5 13.9375 C-14.3559375 14.70964844 -15.211875 15.48179687 -16.09375 16.27734375 C-16.7228125 16.84582031 -17.351875 17.41429687 -18 18 C-18.66 17.67 -19.32 17.34 -20 17 C-3.30784708 0 -3.30784708 0 0 0 Z " fill="#4235F2" transform="translate(603,698)"/>
<path d="M0 0 C4.95021409 0.79647029 9.58170153 2.45320707 14.3125 4.0625 C15.14845703 4.34416016 15.98441406 4.62582031 16.84570312 4.91601562 C18.89805624 5.60795182 20.94915483 6.30360709 23 7 C23 7.33 23 7.66 23 8 C14.72550999 7.57200914 7.66700112 4.95555804 0 2 C0 1.34 0 0.68 0 0 Z " fill="#4438F3" transform="translate(358,633)"/>
<path d="M0 0 C0.66 0.33 1.32 0.66 2 1 C-11.85035017 15.10578695 -11.85035017 15.10578695 -16 18 C-16.99 18 -17.98 18 -19 18 C-13.19194647 12.08483073 -7.30456089 6.3827452 -1 1 C-0.67 0.67 -0.34 0.34 0 0 Z " fill="#3F31F2" transform="translate(577,720)"/>
<path d="M0 0 C2.18968776 3.28453164 2.9965596 6.17412528 4.0234375 9.94140625 C5.26434591 12.55724117 6.36496514 12.92737428 9 14 C11.01182457 15.31542376 13.01399663 16.6459068 15 18 C14.01 18.33 13.02 18.66 12 19 C6.05652859 15.7121222 1.97186529 11.5728843 0 5 C-0.125 2.1875 -0.125 2.1875 0 0 Z " fill="#3D32ED" transform="translate(478,764)"/>
<path d="M0 0 C2 3 2 3 3.3125 6.75 C5.36966334 12.42025224 8.69053276 16.82833549 13 21 C10.22910257 20.6338021 9.13445258 20.13728913 7.1484375 18.109375 C6.56320312 17.33078125 5.97796875 16.5521875 5.375 15.75 C4.78460938 14.98171875 4.19421875 14.2134375 3.5859375 13.421875 C0.61418258 8.8837271 -0.2517549 5.41273043 0 0 Z " fill="#4538F1" transform="translate(378,464)"/>
<path d="M0 0 C5.84239073 1.53014995 9.93796501 4.04142806 13.4375 9.0625 C14.11891224 11.40958661 13.65885427 12.68679631 13 15 C12.5978125 14.22076172 12.5978125 14.22076172 12.1875 13.42578125 C9.35954166 8.39313171 6.68371138 5.70894908 1.57421875 3.0078125 C1.05472656 2.67523437 0.53523438 2.34265625 0 2 C0 1.34 0 0.68 0 0 Z " fill="#4335F3" transform="translate(506,642)"/>
<path d="M0 0 C0.99 0.33 1.98 0.66 3 1 C2.49210938 1.37511719 1.98421875 1.75023437 1.4609375 2.13671875 C-2.80386392 5.307367 -6.95087595 8.55824456 -11 12 C-11 9 -11 9 -9.1015625 6.9921875 C-8.28429687 6.29351563 -7.46703125 5.59484375 -6.625 4.875 C-5.81289063 4.17117188 -5.00078125 3.46734375 -4.1640625 2.7421875 C-2 1 -2 1 0 0 Z " fill="#4B3CF6" transform="translate(597,645)"/>
<path d="M0 0 C0.66 0 1.32 0 2 0 C0.49087042 4.98012761 -2.55661849 8.24259942 -6 12 C-6 8.40941456 -5.10368497 7.25212529 -3.125 4.3125 C-2.59132813 3.50425781 -2.05765625 2.69601562 -1.5078125 1.86328125 C-1.01023437 1.24839844 -0.51265625 0.63351562 0 0 Z " fill="#4134F4" transform="translate(704,597)"/>
<path d="M0 0 C3 2 3 2 4.3125 5.375 C5 9 5 9 4.125 11.4375 C3.75375 11.953125 3.3825 12.46875 3 13 C1.18701995 11.18701995 1.32444995 8.38818302 0.9375 5.9375 C0.76089844 4.83277344 0.58429687 3.72804688 0.40234375 2.58984375 C0.26957031 1.73519531 0.13679687 0.88054688 0 0 Z " fill="#4337F4" transform="translate(573,520)"/>
<path d="M0 0 C-1.38188453 3.21043882 -2.92421903 5.04936365 -5.625 7.25 C-6.57246094 8.03117188 -6.57246094 8.03117188 -7.5390625 8.828125 C-8.02117188 9.21484375 -8.50328125 9.6015625 -9 10 C-9.66 9.67 -10.32 9.34 -11 9 C-9.54782324 7.49403892 -8.08807139 5.99537896 -6.625 4.5 C-5.40683594 3.24703125 -5.40683594 3.24703125 -4.1640625 1.96875 C-2 0 -2 0 0 0 Z " fill="#3E31F1" transform="translate(557,740)"/>
<path d="M0 0 C0.66 0 1.32 0 2 0 C2.2475 0.598125 2.495 1.19625 2.75 1.8125 C4.16370012 4.28647521 5.65055383 5.43370255 8 7 C7.67 7.99 7.34 8.98 7 10 C5.82739389 8.71372289 4.6620717 7.42080217 3.5 6.125 C2.8503125 5.40570312 2.200625 4.68640625 1.53125 3.9453125 C0 2 0 2 0 0 Z " fill="#4D40F5" transform="translate(449,538)"/>
<path d="M0 0 C0.66 0 1.32 0 2 0 C0.4169423 4.2742558 -2.50568404 6.26531794 -6 9 C-6.66 8.67 -7.32 8.34 -8 8 C-6.37660195 6.29115995 -4.70680947 4.62553283 -3 3 C-2.34 3 -1.68 3 -1 3 C-0.67 2.01 -0.34 1.02 0 0 Z " fill="#4134F2" transform="translate(543,751)"/>
<path d="M0 0 C3.375 4.5 3.375 4.5 3 9 C2.01 9.33 1.02 9.66 0 10 C0 6.7 0 3.4 0 0 Z " fill="#5646F9" transform="translate(303,432)"/>
<path d="M0 0 C4 1 4 1 4 1 Z " fill="#7162F4" transform="translate(403,416)"/>
<path d="M0 0 C4 1 4 1 4 1 Z " fill="#6E5DF9" transform="translate(464,326)"/>
<path d="M0 0 C3 1 3 1 3 1 Z " fill="#7160F3" transform="translate(384,684)"/>
<path d="M0 0 C3 1 3 1 3 1 Z " fill="#715FF2" transform="translate(646,683)"/>
<path d="M0 0 C3 1 3 1 3 1 Z " fill="#6D5EEE" transform="translate(353,677)"/>
<path d="M0 0 C0.66 0.66 1.32 1.32 2 2 C1.34 2 0.68 2 0 2 C0 1.34 0 0.68 0 0 Z " fill="#6F60EE" transform="translate(323,661)"/>
<path d="M0 0 C3 1 3 1 3 1 Z " fill="#7263F2" transform="translate(468,512)"/>
<path d="" fill="#7261FB" transform="translate(0,0)"/>
<path d="M0 0 C2 1 2 1 2 1 Z " fill="#6F5FF5" transform="translate(388,684)"/>
<path d="M0 0 C2 1 2 1 2 1 Z " fill="#7161EF" transform="translate(369,682)"/>
<path d="M0 0 C2 1 2 1 2 1 Z " fill="#705EEE" transform="translate(356,678)"/>
<path d="M0 0 C2 1 2 1 2 1 Z " fill="#7061F9" transform="translate(572,664)"/>
<path d="" fill="#6F5FF4" transform="translate(0,0)"/>
<path d="" fill="#6F60EF" transform="translate(0,0)"/>
<path d="" fill="#7260F1" transform="translate(0,0)"/>
<path d="" fill="#6D59F9" transform="translate(0,0)"/>
<path d="M0 0 C2 1 2 1 2 1 Z " fill="#7363F7" transform="translate(532,567)"/>
<path d="" fill="#6E64EF" transform="translate(0,0)"/>
<path d="" fill="#7465F4" transform="translate(0,0)"/>
<path d="M0 0 C2 1 2 1 2 1 Z " fill="#7263F4" transform="translate(565,512)"/>
<path d="" fill="#7260F1" transform="translate(0,0)"/>
<path d="M0 0 C2 1 2 1 2 1 Z " fill="#715EFB" transform="translate(644,327)"/>
<path d="M0 0 C2 1 2 1 2 1 Z " fill="#6D5DFA" transform="translate(376,327)"/>
<path d="M0 0 C2 1 2 1 2 1 Z " fill="#6E5DFA" transform="translate(616,326)"/>
<path d="M0 0 C2 1 2 1 2 1 Z " fill="#6F5DF9" transform="translate(592,326)"/>
<path d="M0 0 C2 1 2 1 2 1 Z " fill="#6F5DF8" transform="translate(544,326)"/>
<path d="M0 0 C2 1 2 1 2 1 Z " fill="#6F5DFA" transform="translate(480,326)"/>
<path d="M0 0 C2 1 2 1 2 1 Z " fill="#6F5DF9" transform="translate(472,326)"/>
<path d="M0 0 C2 1 2 1 2 1 Z " fill="#6F5DFA" transform="translate(419,326)"/>
<path d="M0 0 C2 1 2 1 2 1 Z " fill="#6F5DFB" transform="translate(408,326)"/>
<path d="M0 0 C2 1 2 1 2 1 Z " fill="#6E5DFA" transform="translate(400,326)"/>
<path d="M0 0 C2 1 2 1 2 1 Z " fill="#7163EE" transform="translate(696,299)"/>
<path d="M0 0 C2 1 2 1 2 1 Z " fill="#7263EF" transform="translate(369,282)"/>
<path d="" fill="#474848" transform="translate(0,0)"/>
<path d="" fill="#4B4B4C" transform="translate(0,0)"/>
<path d="" fill="#6B5FEC" transform="translate(0,0)"/>
<path d="" fill="#7062E3" transform="translate(0,0)"/>
<path d="" fill="#725DFD" transform="translate(0,0)"/>
<path d="" fill="#6C60F8" transform="translate(0,0)"/>
<path d="" fill="#7060F8" transform="translate(0,0)"/>
<path d="" fill="#725EF6" transform="translate(0,0)"/>
<path d="" fill="#705EF6" transform="translate(0,0)"/>
<path d="" fill="#7060F9" transform="translate(0,0)"/>
<path d="" fill="#715DF7" transform="translate(0,0)"/>
<path d="" fill="#6E5EFB" transform="translate(0,0)"/>
<path d="" fill="#7160F1" transform="translate(0,0)"/>
<path d="" fill="#715FFB" transform="translate(0,0)"/>
<path d="" fill="#7063EE" transform="translate(0,0)"/>
<path d="" fill="#6F5FF3" transform="translate(0,0)"/>
<path d="" fill="#7062F9" transform="translate(0,0)"/>
<path d="" fill="#6E61FA" transform="translate(0,0)"/>
<path d="" fill="#7061FA" transform="translate(0,0)"/>
<path d="" fill="#7162FB" transform="translate(0,0)"/>
<path d="" fill="#6F5EF2" transform="translate(0,0)"/>
<path d="" fill="#735EF6" transform="translate(0,0)"/>
<path d="" fill="#7662FA" transform="translate(0,0)"/>
<path d="" fill="#705DFB" transform="translate(0,0)"/>
<path d="" fill="#6E5EFA" transform="translate(0,0)"/>
<path d="" fill="#7160EF" transform="translate(0,0)"/>
<path d="" fill="#715FF1" transform="translate(0,0)"/>
<path d="" fill="#7161FB" transform="translate(0,0)"/>
<path d="" fill="#7060F1" transform="translate(0,0)"/>
<path d="" fill="#725EEB" transform="translate(0,0)"/>
<path d="" fill="#6F5BF1" transform="translate(0,0)"/>
<path d="" fill="#6F5FFA" transform="translate(0,0)"/>
<path d="" fill="#6F5EF9" transform="translate(0,0)"/>
<path d="" fill="#7062F8" transform="translate(0,0)"/>
<path d="" fill="#705FF6" transform="translate(0,0)"/>
<path d="" fill="#6E5FF0" transform="translate(0,0)"/>
<path d="" fill="#705EF9" transform="translate(0,0)"/>
<path d="" fill="#6E5EF9" transform="translate(0,0)"/>
<path d="" fill="#7262EC" transform="translate(0,0)"/>
<path d="" fill="#7263F1" transform="translate(0,0)"/>
<path d="" fill="#7060F1" transform="translate(0,0)"/>
<path d="" fill="#6E61F3" transform="translate(0,0)"/>
<path d="" fill="#7261F1" transform="translate(0,0)"/>
<path d="" fill="#6D5DFB" transform="translate(0,0)"/>
<path d="" fill="#705FF2" transform="translate(0,0)"/>
<path d="" fill="#7465F8" transform="translate(0,0)"/>
<path d="" fill="#7461F6" transform="translate(0,0)"/>
<path d="" fill="#6D5EFA" transform="translate(0,0)"/>
<path d="" fill="#705FF8" transform="translate(0,0)"/>
<path d="" fill="#7865F8" transform="translate(0,0)"/>
<path d="" fill="#715CF9" transform="translate(0,0)"/>
<path d="" fill="#7261F2" transform="translate(0,0)"/>
<path d="" fill="#7261F8" transform="translate(0,0)"/>
<path d="" fill="#7562F9" transform="translate(0,0)"/>
<path d="" fill="#7865F4" transform="translate(0,0)"/>
<path d="" fill="#7464F8" transform="translate(0,0)"/>
<path d="" fill="#7564F7" transform="translate(0,0)"/>
<path d="" fill="#7263F5" transform="translate(0,0)"/>
<path d="" fill="#6F62F6" transform="translate(0,0)"/>
<path d="" fill="#6E60F1" transform="translate(0,0)"/>
<path d="" fill="#6F5FF6" transform="translate(0,0)"/>
<path d="" fill="#735EF2" transform="translate(0,0)"/>
<path d="" fill="#6F61F8" transform="translate(0,0)"/>
<path d="" fill="#7163F8" transform="translate(0,0)"/>
<path d="" fill="#7565F7" transform="translate(0,0)"/>
<path d="" fill="#7164F3" transform="translate(0,0)"/>
<path d="" fill="#7262F9" transform="translate(0,0)"/>
<path d="" fill="#7262F2" transform="translate(0,0)"/>
<path d="" fill="#6E5EF4" transform="translate(0,0)"/>
<path d="" fill="#7563F4" transform="translate(0,0)"/>
<path d="" fill="#6F5FF7" transform="translate(0,0)"/>
<path d="" fill="#7463F8" transform="translate(0,0)"/>
<path d="" fill="#7665F6" transform="translate(0,0)"/>
<path d="" fill="#7264F8" transform="translate(0,0)"/>
<path d="" fill="#7363F5" transform="translate(0,0)"/>
<path d="" fill="#7363F4" transform="translate(0,0)"/>
<path d="" fill="#7464F6" transform="translate(0,0)"/>
<path d="" fill="#7164F7" transform="translate(0,0)"/>
<path d="" fill="#7264F5" transform="translate(0,0)"/>
<path d="" fill="#6D5BFD" transform="translate(0,0)"/>
<path d="" fill="#6E60F8" transform="translate(0,0)"/>
<path d="" fill="#7060EE" transform="translate(0,0)"/>
<path d="" fill="#7263F4" transform="translate(0,0)"/>
<path d="" fill="#7161F2" transform="translate(0,0)"/>
<path d="" fill="#7161F2" transform="translate(0,0)"/>
<path d="" fill="#7164F1" transform="translate(0,0)"/>
<path d="" fill="#7062F0" transform="translate(0,0)"/>
<path d="" fill="#7261F1" transform="translate(0,0)"/>
<path d="" fill="#705DFB" transform="translate(0,0)"/>
<path d="" fill="#6E5EFA" transform="translate(0,0)"/>
<path d="" fill="#7061F2" transform="translate(0,0)"/>
<path d="" fill="#6D61F0" transform="translate(0,0)"/>
<path d="" fill="#6F62F5" transform="translate(0,0)"/>
<path d="" fill="#7364EE" transform="translate(0,0)"/>
<path d="" fill="#6E5CFB" transform="translate(0,0)"/>
<path d="" fill="#715CF9" transform="translate(0,0)"/>
<path d="" fill="#7464F5" transform="translate(0,0)"/>
<path d="" fill="#6E5FFA" transform="translate(0,0)"/>
<path d="" fill="#715EF9" transform="translate(0,0)"/>
<path d="" fill="#6D5DF8" transform="translate(0,0)"/>
<path d="" fill="#6E5DF8" transform="translate(0,0)"/>
<path d="" fill="#6F5DFA" transform="translate(0,0)"/>
<path d="" fill="#6E5DF9" transform="translate(0,0)"/>
<path d="" fill="#705CF8" transform="translate(0,0)"/>
<path d="" fill="#6E5BF9" transform="translate(0,0)"/>
<path d="" fill="#6E5DF9" transform="translate(0,0)"/>
<path d="" fill="#6F5CF9" transform="translate(0,0)"/>
<path d="" fill="#6F5DF9" transform="translate(0,0)"/>
<path d="" fill="#6E5EF9" transform="translate(0,0)"/>
<path d="" fill="#6F5FF9" transform="translate(0,0)"/>
<path d="" fill="#6F5CF7" transform="translate(0,0)"/>
<path d="" fill="#6E5EF7" transform="translate(0,0)"/>
<path d="" fill="#6F5EF8" transform="translate(0,0)"/>
<path d="" fill="#705DF9" transform="translate(0,0)"/>
<path d="" fill="#6E5DF7" transform="translate(0,0)"/>
<path d="" fill="#6F5EF8" transform="translate(0,0)"/>
<path d="" fill="#6F5FF9" transform="translate(0,0)"/>
<path d="" fill="#6F5EF9" transform="translate(0,0)"/>
<path d="" fill="#6E5DF7" transform="translate(0,0)"/>
<path d="" fill="#6E5DFA" transform="translate(0,0)"/>
<path d="" fill="#6E5DF8" transform="translate(0,0)"/>
<path d="" fill="#6E5DF9" transform="translate(0,0)"/>
<path d="" fill="#6D5EF9" transform="translate(0,0)"/>
<path d="" fill="#6D5CF9" transform="translate(0,0)"/>
<path d="" fill="#6E5BF9" transform="translate(0,0)"/>
<path d="" fill="#705EFA" transform="translate(0,0)"/>
<path d="" fill="#6D5DFB" transform="translate(0,0)"/>
<path d="" fill="#6F5DFC" transform="translate(0,0)"/>
<path d="" fill="#7163EF" transform="translate(0,0)"/>
<path d="" fill="#7366EF" transform="translate(0,0)"/>
<path d="" fill="#6F5FEF" transform="translate(0,0)"/>
<path d="" fill="#7465EE" transform="translate(0,0)"/>
<path d="" fill="#7363EE" transform="translate(0,0)"/>
<path d="" fill="#7061ED" transform="translate(0,0)"/>
<path d="" fill="#6E60EB" transform="translate(0,0)"/>
<path d="" fill="#7465EC" transform="translate(0,0)"/>
<path d="" fill="#7263EE" transform="translate(0,0)"/>
<path d="" fill="#7163ED" transform="translate(0,0)"/>
<path d="" fill="#6F61F0" transform="translate(0,0)"/>
<path d="" fill="#7262EF" transform="translate(0,0)"/>
<path d="" fill="#7362EE" transform="translate(0,0)"/>
<path d="" fill="#7262EC" transform="translate(0,0)"/>
<path d="" fill="#7262EF" transform="translate(0,0)"/>
<path d="" fill="#7263EF" transform="translate(0,0)"/>
<path d="" fill="#7062F0" transform="translate(0,0)"/>
<path d="" fill="#7464F0" transform="translate(0,0)"/>
<path d="" fill="#7362EF" transform="translate(0,0)"/>
<path d="" fill="#7263F0" transform="translate(0,0)"/>
</svg>
